<svg width="92" height="47" viewBox="0 0 92 47" fill="none" xmlns="http://www.w3.org/2000/svg">
<path d="M81.2292 46.6324L80.9861 46.3406H80.9618C80.5485 46.3406 79.9163 46.292 79.187 46.1704C76.5369 45.5869 74.1056 44.2497 72.1848 42.329C71.7472 41.8671 71.2366 41.3079 70.6774 40.6271C66.836 35.8861 64.1616 24.8967 69.2673 9.458L69.2916 9.38506L68.465 9.36074H68.1975C64.04 9.36074 60.1257 10.9654 57.2081 13.8586C53.9502 16.8248 51.5675 20.6662 50.0601 23.5838L49.1362 23.7296C49.428 21.7603 49.6954 19.3776 49.6954 17.0679C49.6954 14.2233 49.2821 11.5246 48.0908 9.99288C46.9724 8.58273 45.1003 8.3396 42.669 9.31212C37.5147 11.6705 32.0443 17.5056 27.9597 24.9453C28.0813 24.0214 28.1299 23.0732 28.1299 22.0521C28.1299 14.5637 24.4101 7.53728 18.186 3.28253C12.8858 -0.0969634 9.04432 0.000288032 8.99569 0.000288032H8.89844L9.06863 0.364981H9.09294C9.7737 0.43792 15.9492 1.3375 20.1067 8.16941C22.076 11.4273 23.0728 15.7064 23.0728 20.9094C23.0485 27.0848 21.6384 34.7677 19.0855 42.5478L19.0612 42.6208H24.6289L24.6532 42.5721C27.0115 34.792 30.853 23.5595 37.1014 15.9982C39.3138 13.3237 42.6204 10.625 44.0305 10.8681C44.3223 10.9168 44.5654 11.087 44.7599 11.403C46.4861 14.1261 44.614 26.6229 40.1405 42.5235L40.1162 42.5964H45.6109V42.5478C45.6109 42.4992 46.4618 37.9041 48.65 32.1419C49.7441 29.2973 52.7832 22.8301 56.5274 18.6726C59.8825 14.9527 62.1193 14.0774 62.5813 13.9073C62.4111 14.6366 61.317 19.3533 61.317 24.848C61.317 28.0817 61.706 31.5827 62.873 34.6948C63.5295 36.421 64.5263 38.6578 66.5686 40.7487C70.0696 44.4685 74.8106 46.5838 79.9163 46.7053L81.3265 46.6567L81.2292 46.6324Z" fill="#DFDBCF"/>
<path d="M59.5412 22.9273V29.9294C59.5412 31.1937 59.9545 32.3364 61.9239 32.3364C64.3308 32.3364 65.1332 30.3427 65.1332 28.5436V22.9273H67.9048V33.552H65.4006L65.352 31.607C64.501 33.0415 62.8721 33.7708 60.9513 33.7708C58.5687 33.7708 56.7695 32.458 56.7695 30.3184V22.9273H59.5412Z" fill="#484848"/>
<path d="M42.5223 22.903C41.9631 22.7815 41.5741 22.7085 40.9906 22.7085C40.1396 22.7085 38.3405 23.1948 37.2464 25.6747L37.2707 22.9273H34.7422V33.5521H37.5139V28.9812C37.5139 25.9421 38.7295 24.6536 40.9663 24.7751C42.5466 24.8724 42.4494 23.4865 42.5223 22.903Z" fill="#484848"/>
<path d="M79.5516 22.903C78.9924 22.7815 78.6034 22.7085 78.0199 22.7085C77.1689 22.7085 75.3698 23.1948 74.2757 25.6747L74.3 22.9273H71.7715V33.5521H74.5432V28.9812C74.5432 25.9421 75.7588 24.6536 78.0199 24.7751C79.5759 24.8724 79.4787 23.4865 79.5516 22.903Z" fill="#484848"/>
<path d="M46.583 28.2032C46.583 24.9696 48.7954 23.9242 50.7161 23.9242C51.2753 23.9242 51.8588 24.0457 52.3694 24.143C52.9529 24.2646 53.6094 23.9971 54.0227 23.3407L54.047 23.3163C52.2722 22.7328 50.9106 22.7085 50.473 22.7085C47.4096 22.7085 43.5195 24.1916 43.5195 28.3005C43.5682 31.7043 46.5586 33.7709 50.0111 33.7709C51.713 33.7709 53.3176 33.3576 54.9223 32.5796C54.4117 31.8502 53.5607 31.8015 53.0016 32.0447C52.3451 32.2878 51.5914 32.5796 50.4973 32.5796C48.9656 32.5552 46.6073 31.8259 46.583 28.2032Z" fill="#484848"/>
<path d="M8.16913 33.3575C8.43657 33.3575 8.72832 33.3575 8.80126 33.3575C8.89851 33.1873 13.6395 23.8512 13.6395 23.8512V33.5277H16.3626V20.4717H13.0803C12.9831 20.6419 8.19344 29.5647 8.19344 29.5647C8.19344 29.5647 3.37949 20.6419 3.28224 20.4717H0V33.552H2.72304V23.8755C2.72304 23.8755 7.46405 33.2117 7.5613 33.3818C7.63424 33.3575 7.90168 33.3575 8.16913 33.3575Z" fill="#484848"/>
<path d="M25.9895 23.8026C27.6428 23.8026 28.6153 24.6779 28.6153 26.7202H22.8288C23.0963 24.7751 24.4092 23.8026 25.9895 23.8026ZM31.387 27.8385V27.255C31.387 25.7963 30.7062 22.7085 26.0868 22.7085C21.905 22.7085 19.7168 25.5288 19.7168 28.2275C19.7168 31.6557 22.7316 33.7466 26.2083 33.7466C27.74 33.7466 29.4176 33.3819 31.1195 32.5552C30.8278 32.1419 30.3658 31.8745 29.831 31.8745C29.6608 31.8745 29.4419 31.9231 29.2718 31.9717C28.3965 32.2878 27.7644 32.5309 26.7189 32.5309C25.1872 32.5309 22.5857 31.7286 22.7802 27.8142H31.387V27.8385Z" fill="#484848"/>
<path d="M86.6028 23.8026C88.2561 23.8026 89.2286 24.6779 89.2286 26.7202H83.4421C83.7096 24.7751 84.9982 23.8026 86.6028 23.8026ZM92.0003 27.8385V27.255C92.0003 25.7963 91.3195 22.7085 86.7001 22.7085C82.5182 22.7085 80.3301 25.5288 80.3301 28.2275C80.3301 31.6557 83.3449 33.7466 86.8216 33.7466C88.3533 33.7466 90.0309 33.3819 91.7328 32.5552C91.4411 32.1419 90.9791 31.8745 90.4442 31.8745C90.274 31.8745 90.0552 31.9231 89.885 31.9717C89.0098 32.2878 88.3776 32.5309 87.3322 32.5309C85.8005 32.5309 83.199 31.7286 83.3935 27.8142H92.0003V27.8385Z" fill="#484848"/>
</svg>
