<svg width="23" height="24" viewBox="0 0 23 24" fill="none" xmlns="http://www.w3.org/2000/svg">
<path d="M10.3457 13.2832C10.3457 12.7204 10.4155 12.2718 10.5552 11.9375C10.6948 11.6032 10.9699 11.2371 11.3804 10.8394C11.7951 10.4373 12.0575 10.1517 12.1675 9.98242C12.3368 9.72428 12.4214 9.44499 12.4214 9.14453C12.4214 8.74674 12.3219 8.44417 12.123 8.23682C11.9284 8.02523 11.6406 7.91943 11.2598 7.91943C10.8958 7.91943 10.6017 8.02311 10.3774 8.23047C10.1574 8.43359 10.0474 8.71077 10.0474 9.06201H8.50488C8.51335 8.31299 8.76725 7.72054 9.2666 7.28467C9.77018 6.8488 10.4346 6.63086 11.2598 6.63086C12.1104 6.63086 12.7726 6.84668 13.2466 7.27832C13.7248 7.70996 13.9639 8.31299 13.9639 9.0874C13.9639 9.77718 13.6423 10.4564 12.999 11.125L12.2183 11.8931C11.939 12.2104 11.7951 12.6738 11.7866 13.2832H10.3457ZM10.2378 15.2573C10.2378 15.0076 10.3161 14.8066 10.4727 14.6543C10.6292 14.4977 10.8408 14.4194 11.1074 14.4194C11.3783 14.4194 11.592 14.4998 11.7485 14.6606C11.9051 14.8172 11.9834 15.0161 11.9834 15.2573C11.9834 15.4901 11.9072 15.6847 11.7549 15.8413C11.6025 15.9979 11.3867 16.0762 11.1074 16.0762C10.8281 16.0762 10.6123 15.9979 10.46 15.8413C10.3118 15.6847 10.2378 15.4901 10.2378 15.2573Z" fill="#979797"/>
<circle cx="11.124" cy="11" r="10.5" stroke="#979797"/>
</svg>
